# xmcd CD database file
#
# Track frame offsets:
#	150
#	10024
#	25364
#	34469
#	52082
#	70335
#	81664
#	102771
#	116252
#	126971
#	138818
#	150525
#	161361
#	175433
#	188262
#	201977
#	216569
#	227346
#	247276
#	260154
#	273317
#	288298
#	303655
#	319949
#	341226
#
# Disc length: 4799 seconds
#
# Revision: 0
# Processed by: cddbd v1.5.2PL0 Copyright (c) Steve Scherf et al.
# Submitted via: CDex 1.70beta2
#
DISCID=7a12bd19
DTITLE=Earl Hines - Four Classic Albums plus [CD1)
DYEAR=1900
DGENRE=Jazz
TTITLE0=Monday Date
TTITLE1=Bill Bailey, Won't You Please Come Home
TTITLE2=Do You Know What It Means To Miss New Orleans
TTITLE3=Lonesome Road
TTITLE4=Squeeze Me
TTITLE5=Limehouse Blues
TTITLE6=West End Blues
TTITLE7=Yes, Sir, That's My Baby
TTITLE8=Caution Blues
TTITLE9=Mandy, Make Up Your Mind
TTITLE10=A Closer Walk With Thee
TTITLE11=Clarinet Marmalade
TTITLE12=Perdido
TTITLE13=Save It, Pretty Mama
TTITLE14=Muskrat Ramble
TTITLE15=Moonlight in Vermont
TTITLE16=Nice Work If You can Get It
TTITLE17=I Am Wasting My Time
TTITLE18=You're Getting To Be A Habit With Me
TTITLE19=Hallelujah
TTITLE20=If I Could Be With You (One Hour Tonight)
TTITLE21=Walkin' My Baby Back Home
TTITLE22=Makin' Whoopee
TTITLE23=I Got It Bad (And That Ain't Good)
TTITLE24=Saint Louis Blues Boogie Woogiee
EXTD=
EXTT0=
EXTT1=
EXTT2=
EXTT3=
EXTT4=
EXTT5=
EXTT6=
EXTT7=
EXTT8=
EXTT9=
EXTT10=
EXTT11=
EXTT12=
EXTT13=
EXTT14=
EXTT15=
EXTT16=
EXTT17=
EXTT18=
EXTT19=
EXTT20=
EXTT21=
EXTT22=
EXTT23=
EXTT24=
PLAYORDER=
